<?xml version="1.0" standalone="no"?><!DOCTYPE svg PUBLIC "-//W3C//DTD SVG 1.1//EN" "http://www.w3.org/Graphics/SVG/1.1/DTD/svg11.dtd"><svg t="1676456696433" class="icon" viewBox="0 0 1024 1024" version="1.1" xmlns="http://www.w3.org/2000/svg" p-id="36735" xmlns:xlink="http://www.w3.org/1999/xlink" width="200" height="200"><path d="M510.66 528.65c-20.94 0-39.56-2-55.18-4.72-49.38-8.58-80.25-25.83-81.54-26.56l9.85-17.41 9.79-17.43c0.27 0.15 27.33 15.05 70.39 22.27 57.22 9.59 114.28 1.83 169.59-23.07L650 498.21c-51.62 23.24-99.64 30.44-139.34 30.44z" fill="" p-id="36736" data-spm-anchor-id="a313x.7781069.0.i7" class="selected"></path><path d="M513.4 875.95c-46.31 0-92.63-5.13-137.67-15.38l-145.29-33.08a38.005 38.005 0 0 1-29.4-58.32l0.15-0.23c0.42-0.64 42.21-64.42 83.41-135.61 67.01-115.79 79.32-158.97 80.93-174.09l-19.02-45.41c-17.82-42.52-21.86-88.66-11.69-133.43 4.08-17.94 39.32-92.28 48.36-107.87a49.917 49.917 0 0 1 39.48-24.74 49.899 49.899 0 0 1 42.68 18.53c4.29 5.35 8.56 11.29 13.08 17.58 7.51 10.44 15.28 21.23 22.98 29.06 8.78 8.92 12.81 9.17 13.24 9.17 0.03 0 3.58-0.38 11.34-8.53 6.98-7.33 14.12-17.46 21.01-27.25 5.3-7.52 10.3-14.62 15.38-20.73 10.34-12.43 26.15-19.08 42.29-17.81 16.17 1.28 30.76 10.36 39.03 24.29 9.53 16.05 43.46 90.41 47.62 107.49 10.99 45.09 7.37 91.83-10.48 135.17l-18.87 45.83c1.57 15.07 13.73 58.13 80.19 173.48 40.82 70.85 82.23 134.28 82.64 134.91l0.13 0.21a37.991 37.991 0 0 1 1.24 38.72 37.964 37.964 0 0 1-30.64 19.57L651.79 860.4c-45.26 10.37-91.83 15.55-138.39 15.55z m-276.8-88.08l148.01 33.7c84.49 19.24 173.79 19.18 258.25-0.15l146.53-33.56c-8.77-13.54-45.49-70.7-81.78-133.67-24.43-42.39-43.93-79.16-57.97-109.3-19-40.8-27.85-68.69-27.85-87.77v-3.96l22.09-53.63c14.6-35.46 17.58-73.66 8.6-110.47-2.68-10.98-34.14-81.36-43.16-96.55-2.29-3.85-5.86-4.68-7.79-4.83-1.91-0.15-5.54 0.1-8.38 3.51-4.06 4.88-8.61 11.34-13.43 18.18-17.41 24.72-37.15 52.75-65.06 52.75-29.21 0-50.19-29.15-68.69-54.87-4.21-5.85-8.19-11.38-11.82-15.92-2.83-3.53-6.52-3.81-8.47-3.67-1.96 0.15-5.59 0.98-7.89 4.93-9.49 16.36-41.46 85.78-43.96 96.66-8.31 36.58-5 74.31 9.57 109.1l22.33 53.32v4.02c0 19.1-8.93 47.07-28.11 88.03-14.16 30.25-33.85 67.19-58.49 109.77-36.63 63.31-73.7 120.8-82.53 134.38z" fill="" p-id="36737"></path></svg>