<?xml version="1.0" standalone="no"?><!DOCTYPE svg PUBLIC "-//W3C//DTD SVG 1.1//EN" "http://www.w3.org/Graphics/SVG/1.1/DTD/svg11.dtd"><svg t="1676456497379" class="icon" viewBox="0 0 1024 1024" version="1.1" xmlns="http://www.w3.org/2000/svg" p-id="4322" xmlns:xlink="http://www.w3.org/1999/xlink" width="200" height="200"><path d="M826.5216 141.824H205.1072c-90.3168 0-163.84 73.5232-163.84 163.84v412.2112c0 90.3168 73.5232 163.84 163.84 163.84h621.3632c90.3168 0 163.84-73.5232 163.84-163.84V305.664c0.0512-90.3168-73.472-163.84-163.7888-163.84z m-621.4144 61.44h621.3632c56.4736 0 102.4 45.9264 102.4 102.4v15.5648H102.7072V305.664c0-56.4736 45.9776-102.4 102.4-102.4z m621.4144 617.0112H205.1072c-56.4736 0-102.4-45.9264-102.4-102.4V382.6688h826.1632v335.2064c0.0512 56.4736-45.9264 102.4-102.3488 102.4z" fill="#515151" p-id="4323" data-spm-anchor-id="a313x.7781069.0.i31" class="selected"></path><path d="M360.8576 514.7648H215.7568c-16.9472 0-30.72-13.7728-30.72-30.72s13.7728-30.72 30.72-30.72h145.152c16.9472 0 30.72 13.7728 30.72 30.72s-13.7728 30.72-30.7712 30.72z" fill="#515151" p-id="4324" data-spm-anchor-id="a313x.7781069.0.i30" class="selected"></path></svg>