<?xml version="1.0" standalone="no"?><!DOCTYPE svg PUBLIC "-//W3C//DTD SVG 1.1//EN" "http://www.w3.org/Graphics/SVG/1.1/DTD/svg11.dtd"><svg t="1678898992490" class="icon" viewBox="0 0 1024 1024" version="1.1" xmlns="http://www.w3.org/2000/svg" p-id="4715" xmlns:xlink="http://www.w3.org/1999/xlink" width="200" height="200"><path d="M799.863189 422.096625c-12.11105-135.427794-117.936123-244.073504-252.032726-260.718053l31.883434-127.906096c3.593286-14.438308-5.19444-29.062797-19.632748-32.665392-14.41969-3.602595-29.072106 5.19444-32.665392 19.632748l-34.769234 139.486532c-141.720699 9.495212-255.728411 121.315302-268.323531 262.17957-14.745506 13.423624-24.175555 32.581611-24.175556 54.038929v16.905202c0 40.28018 32.646774 73.029354 72.861792 73.308625l33.503205 402.503915c2.569293 30.924603 28.6532 55.137395 59.373005 55.137395h292.405996c30.729114 0 56.803712-24.222101 59.373005-55.128086l33.503205-402.513224c40.224326-0.279271 72.861792-33.028445 72.861791-73.308625v-16.905202c0.009309-21.466627-9.430049-40.624615-24.166246-54.048238zM512.09309 212.829591c114.203202 0 209.564923 81.854316 230.724352 189.950793h-461.448704c21.159429-108.105786 116.52115-189.950793 230.724352-189.950793z m146.198344 757.261806H365.885438c-2.913727 0-5.399238-2.50413-5.67851-5.706436l-33.121535-397.989035h370.006085L663.969943 964.384961c-0.279271 3.202307-2.764782 5.706436-5.678509 5.706436zM770.139451 493.040756c0 10.733314-8.741181 19.465185-19.474495 19.465185H273.511915c-10.733314 0-19.465185-8.731872-19.465185-19.465185v-16.905202c0-10.733314 8.731872-19.465185 19.465185-19.465185h477.16235c10.733314 0 19.474494 8.731872 19.474495 19.465185v16.905202z" fill="" p-id="4716"></path></svg>