<?xml version="1.0" standalone="no"?><!DOCTYPE svg PUBLIC "-//W3C//DTD SVG 1.1//EN" "http://www.w3.org/Graphics/SVG/1.1/DTD/svg11.dtd"><svg t="1676455802685" class="icon" viewBox="0 0 1024 1024" version="1.1" xmlns="http://www.w3.org/2000/svg" p-id="1220" data-spm-anchor-id="a313x.7781069.0.i4" xmlns:xlink="http://www.w3.org/1999/xlink" width="200" height="200"><path d="M956.6208 841.2672h-286.6688l-69.3248-109.4144H417.4848L348.16 841.2672H70.6048L147.0976 185.344h733.0816l76.4416 655.9232z m-252.8256-61.44h183.8592L825.4976 246.784H201.7792L139.6224 779.8272H314.368l69.3248-109.4144h250.8288l69.2736 109.4144z" fill="#515151" p-id="1221" data-spm-anchor-id="a313x.7781069.0.i3" class=""></path><path d="M686.2848 570.2656c-61.0304 0-110.6432-49.664-110.6432-110.6432 0-61.0304 49.664-110.6432 110.6432-110.6432s110.6432 49.664 110.6432 110.6432c0.0512 60.9792-49.6128 110.6432-110.6432 110.6432z m0-149.6576c-21.504 0-38.9632 17.5104-38.9632 38.9632s17.5104 38.9632 38.9632 38.9632 38.9632-17.5104 38.9632-38.9632-17.4592-38.9632-38.9632-38.9632zM436.9408 423.7312H379.392V366.1824h-71.68v57.5488H250.112v71.68H307.712v57.6h71.68V495.4112h57.5488z" fill="#707070" p-id="1222" data-spm-anchor-id="a313x.7781069.0.i0" class="selected"></path></svg>