<?xml version="1.0" standalone="no"?><!DOCTYPE svg PUBLIC "-//W3C//DTD SVG 1.1//EN" "http://www.w3.org/Graphics/SVG/1.1/DTD/svg11.dtd"><svg t="1678023416146" class="icon" viewBox="0 0 1024 1024" version="1.1" xmlns="http://www.w3.org/2000/svg" p-id="2775" xmlns:xlink="http://www.w3.org/1999/xlink" width="200" height="200"><path d="M1013.696842 184.811146c-6.082532-6.082532-14.171768-9.43386-22.774703-9.43386s-16.692171 3.350304-22.775726 9.43386l-586.755588 586.756611-325.539284-325.537238c-6.083555-6.084579-14.172791-9.43693-22.776749-9.43693-8.602935 0-16.692171 3.351328-22.774703 9.434883-6.083555 6.082532-9.434883 14.172791-9.434883 22.775726 0 8.603959 3.349281 16.692171 9.43386 22.776749l347.610976 347.609952c6.082532 6.081509 14.171768 9.432837 22.773679 9.432837 0.236384 0 0.470721-0.01228 0.705058-0.017396 0.23536 0.005117 0.469698 0.017396 0.705058 0.017396 8.603959 0 16.692171-3.350304 22.775726-9.432837l608.826256-608.828302c6.083555-6.083555 9.43386-14.172791 9.43386-22.776749C1023.131725 198.98189 1019.78142 190.893678 1013.696842 184.811146z" p-id="2776"></path></svg>