<?xml version="1.0" standalone="no"?><!DOCTYPE svg PUBLIC "-//W3C//DTD SVG 1.1//EN" "http://www.w3.org/Graphics/SVG/1.1/DTD/svg11.dtd"><svg t="1676455938824" class="icon" viewBox="0 0 1024 1024" version="1.1" xmlns="http://www.w3.org/2000/svg" p-id="2887" xmlns:xlink="http://www.w3.org/1999/xlink" width="200" height="200"><path d="M868.0448 380.8768V134.1952h-195.9424v57.4976l-113.5616-109.6704H472.9344L67.5328 464.384v88.4224H151.04v368.64h728.4736v-368.64h83.5072V472.6272l-94.976-91.7504z m-124.2624-175.0016h52.5824v105.8304l-52.5824-50.7904V205.8752z m64.0512 275.2512v368.64H222.72v-368.64H154.2144l347.1872-327.4752h28.16l339.0976 327.4752h-60.8256z" fill="#515151" p-id="2888" data-spm-anchor-id="a313x.7781069.0.i8" class="selected"></path><path d="M668.16 566.9376v-71.68h-88.4224l58.624-67.6864-54.1696-46.8992-73.1648 84.4288L433.152 383.5904l-51.8144 49.5104 59.3408 62.1568H359.9872v71.68h118.272v47.0016h-118.272v71.68h118.272v71.3216h71.68v-71.3216h118.2208v-71.68h-118.2208v-47.0016z" fill="#515151" p-id="2889" data-spm-anchor-id="a313x.7781069.0.i7" class="selected"></path></svg>