<?xml version="1.0" standalone="no"?><!DOCTYPE svg PUBLIC "-//W3C//DTD SVG 1.1//EN" "http://www.w3.org/Graphics/SVG/1.1/DTD/svg11.dtd"><svg t="1676455982202" class="icon" viewBox="0 0 1024 1024" version="1.1" xmlns="http://www.w3.org/2000/svg" p-id="3641" data-spm-anchor-id="a313x.7781069.0.i16" xmlns:xlink="http://www.w3.org/1999/xlink" width="200" height="200"><path d="M908.032 923.6992h-374.4256L495.7696 407.4496h455.5264l-43.264 516.2496z m-307.8144-71.68h241.92l31.232-372.8896h-300.4928l27.3408 372.8896z" fill="#515151" p-id="3642" data-spm-anchor-id="a313x.7781069.0.i15" class="selected"></path><path d="M722.7392 632.4736c-52.224 0-94.6688-42.496-94.6688-94.6688v-6.0416h71.68v6.0416c0 12.6976 10.3424 22.9888 22.9888 22.9888 12.6976 0 22.9888-10.3424 22.9888-22.9888v-6.0416h71.68v6.0416c0 52.1728-42.4448 94.6688-94.6688 94.6688z" fill="#515151" p-id="3643" data-spm-anchor-id="a313x.7781069.0.i14" class="selected"></path><path d="M411.2384 922.9312l71.4752-5.376-14.4896-192c-7.3216-97.1264-89.344-173.2096-186.7264-173.2096-98.2016 0-180.2752 76.7488-186.88 174.6944l-12.8512 190.7712 71.5264 4.8128 10.496-155.8016h235.6736l11.776 156.1088z m-129.792-298.8544c47.4624 0 88.8832 29.3376 106.496 71.1168H174.8992c17.6128-41.8304 58.9312-71.1168 106.5472-71.1168z" fill="#515151" p-id="3644" data-spm-anchor-id="a313x.7781069.0.i17" class="selected"></path><path d="M187.2896 918.72256l4.91008-113.7152 71.61344 3.08736-4.90496 113.7152zM302.03392 808.12032l71.61856-3.09248 4.90496 113.7152-71.61856 3.09248z" fill="#515151" p-id="3645" data-spm-anchor-id="a313x.7781069.0.i13" class="selected"></path><path d="M245.6064 87.04h71.68v501.1968h-71.68z" fill="#515151" p-id="3646" data-spm-anchor-id="a313x.7781069.0.i18" class="selected"></path></svg>