<?xml version="1.0" standalone="no"?><!DOCTYPE svg PUBLIC "-//W3C//DTD SVG 1.1//EN" "http://www.w3.org/Graphics/SVG/1.1/DTD/svg11.dtd"><svg t="1676456257634" class="icon" viewBox="0 0 1024 1024" version="1.1" xmlns="http://www.w3.org/2000/svg" p-id="3361" xmlns:xlink="http://www.w3.org/1999/xlink" width="200" height="200"><path d="M404.8896 475.1872a30.6176 30.6176 0 0 1-23.7056-11.1616L324.9664 396.0832a30.76096 30.76096 0 0 1 4.096-43.264 30.76096 30.76096 0 0 1 43.264 4.096L428.544 424.8576a30.76096 30.76096 0 0 1-4.096 43.264 30.45376 30.45376 0 0 1-19.5584 7.0656zM302.6432 555.3664a30.6176 30.6176 0 0 1-23.7056-11.1616L222.72 476.2624c-10.8032-13.056-8.96-32.4096 4.096-43.264 13.056-10.8032 32.4096-8.96 43.264 4.096l56.2176 67.9936c10.8032 13.056 8.96 32.4096-4.096 43.264a30.78656 30.78656 0 0 1-19.5584 7.0144zM572.16 818.9952c-5.0176 0-10.0864-1.2288-14.7968-3.84a30.73024 30.73024 0 0 1-12.0832-41.728c119.3984-216.6272 407.6032-184.832 419.7888-183.3472a30.6688 30.6688 0 0 1 26.8288 34.1504c-1.9968 16.8448-17.3568 28.8256-34.0992 26.88-2.6112-0.3072-259.4304-28.1088-358.7072 151.9616a30.62784 30.62784 0 0 1-26.9312 15.9232z" fill="#515151" p-id="3362" data-spm-anchor-id="a313x.7781069.0.i20" class="selected"></path><path d="M904.2432 818.9952H127.744c-52.2752 0-94.7712-42.496-94.7712-94.7712v-96.3072c0-27.4432 11.8784-53.5552 32.6144-71.5264l366.1824-318.1056a30.64832 30.64832 0 0 1 20.1216-7.5264h86.7328c12.9024 0 24.4224 8.0896 28.8768 20.224 19.2 52.6336 69.7344 88.0128 125.7984 88.0128s106.5984-35.3792 125.7984-88.0128a30.74048 30.74048 0 0 1 28.8768-20.224h83.712c37.12 0 67.328 30.208 67.328 67.328v426.1376c0 52.224-42.496 94.7712-94.7712 94.7712z m-440.832-526.848l-357.5296 310.5792a33.4336 33.4336 0 0 0-11.4688 25.1904v96.3072c0 18.3808 14.9504 33.3312 33.3312 33.3312h776.4992c18.3808 0 33.3312-14.9504 33.3312-33.3312V298.0352c0-3.2256-2.6624-5.888-5.888-5.888h-63.488c-32.7168 65.536-100.4544 108.2368-174.848 108.2368-74.3936 0-142.1312-42.7008-174.848-108.2368H463.4112z" fill="#515151" p-id="3363" data-spm-anchor-id="a313x.7781069.0.i21" class="selected"></path></svg>