<?xml version="1.0" standalone="no"?><!DOCTYPE svg PUBLIC "-//W3C//DTD SVG 1.1//EN" "http://www.w3.org/Graphics/SVG/1.1/DTD/svg11.dtd"><svg t="1676455962605" class="icon" viewBox="0 0 1024 1024" version="1.1" xmlns="http://www.w3.org/2000/svg" p-id="3318" xmlns:xlink="http://www.w3.org/1999/xlink" width="200" height="200"><path d="M768.5632 359.5264c-24.9856-119.808-132.096-206.7968-254.72-206.7968-122.0608 0-229.0688 86.4768-254.464 205.6704l-70.0928-14.9504c32.4096-152.064 168.9088-262.4 324.608-262.4 156.3648 0 293.0176 110.9504 324.864 263.8336l-70.1952 14.6432zM320.6656 609.4336h71.68v162.5088h-71.68zM478.0544 609.4336h71.68v162.5088h-71.68zM640.0512 609.4336h71.68v162.5088h-71.68z" fill="#515151" p-id="3319" data-spm-anchor-id="a313x.7781069.0.i11" class="selected"></path><path d="M948.8384 327.1168H84.5312v227.6864h86.3232l36.1472 375.552h619.3152l36.1472-375.552h86.3232V327.1168zM761.1904 858.624H272.128l-29.2864-303.872h547.584l-29.2352 303.872z m126.208-365.312H145.9712V388.5568h741.376v104.7552z" fill="#515151" p-id="3320" data-spm-anchor-id="a313x.7781069.0.i10" class="selected"></path></svg>