<?xml version="1.0" standalone="no"?><!DOCTYPE svg PUBLIC "-//W3C//DTD SVG 1.1//EN" "http://www.w3.org/Graphics/SVG/1.1/DTD/svg11.dtd"><svg t="1676456118933" class="icon" viewBox="0 0 1024 1024" version="1.1" xmlns="http://www.w3.org/2000/svg" p-id="5399" xmlns:xlink="http://www.w3.org/1999/xlink" width="200" height="200"><path d="M799.488 500.992H220.2624l83.2-223.232h412.8256l83.2 223.232z m-476.0064-71.68H696.32l-29.7984-79.872H353.2288l-29.7472 79.872z" fill="" p-id="5400"></path><path d="M240.0768 621.3632m-49.7664 0a49.7664 49.7664 0 1 0 99.5328 0 49.7664 49.7664 0 1 0-99.5328 0Z" fill="" p-id="5401" data-spm-anchor-id="a313x.7781069.0.i38" class="selected"></path><path d="M770.048 621.3632m-49.7664 0a49.7664 49.7664 0 1 0 99.5328 0 49.7664 49.7664 0 1 0-99.5328 0Z" fill="" p-id="5402" data-spm-anchor-id="a313x.7781069.0.i37" class="selected"></path><path d="M935.3216 928.2048h-196.7616v-94.976H274.2784v92.416h-35.84c-15.0016 0-28.416 0-43.7248-0.0512-20.5824-0.0512-44.6976-0.1024-81.1008-0.1024h-35.84l-0.256-350.1056 25.344-63.5392c-20.6848-9.0112-37.5808-26.0608-45.824-47.9232-13.568-35.9424-1.2288-76.4928 32.2048-105.8304l10.1376-8.9088h68.352l66.0992-165.888h128.5632l50.7392-85.1968h196.7104l51.0464 85.1968 124.7232 0.2048 63.744 165.632h71.0656l10.1376 8.9088c33.3824 29.3376 45.7216 69.888 32.2048 105.8304-8.9088 23.6032-27.8528 41.6256-50.8416 49.92l23.4496 61.8496v352.5632z m-125.0816-71.68h53.4016V588.8l-53.7088-141.6192h73.3696c6.2976 0 10.752-4.3008 12.3392-8.4992 1.9456-5.1712 0.4096-11.3664-4.1984-17.8176h-91.3408l-63.7952-165.6832-116.1728-0.2048-50.9952-85.1456H453.8368L403.0976 254.976H282.4192L216.2688 420.8128H128.256c-4.608 6.4512-6.144 12.6464-4.1984 17.8176 1.5872 4.2496 6.0416 8.4992 12.3392 8.4992h69.376l-56.576 141.9264 0.1536 264.704c18.0224 0 32.4608 0.0512 45.4656 0.0512h7.7824v-92.3648h607.6928v95.0784z" fill="" p-id="5403" data-spm-anchor-id="a313x.7781069.0.i39" class="selected"></path><path d="M392.2944 549.2224h235.2128v71.68H392.2944zM392.2944 636.9792h235.2128v71.68H392.2944z" fill="" p-id="5404" data-spm-anchor-id="a313x.7781069.0.i36" class="selected"></path></svg>